PathFileType	4	(X/Y/Z)	./resultDataOpenSim/trcMotMarkerGrf/sub06/qtm-14-05.trc
DataRate	CameraRate	NumFrames	NumMarkers	Units	OrigDataRate	OrigDataStartFrame	OrigNumFrames
250.000000	250.000000	8	24	m	250.000000	408	543
Frame#	Time	L.Toe.Tip			R.Toe.Tip			L.Ankle.Lat			R.Ankle.Lat			L.Ankle.Med			R.Ankle.Med			L.Heel			R.Heel			L.Knee.Lat			R.Knee.Lat			L.Knee.Med			R.Knee.Med			L.Thigh.Upper			R.Thigh.Upper			L.ASIS			R.ASIS			V.Sacral			L.Acromium			R.Acromium			C7			L.Elbow			R.Elbow			L.Wrist.Lat			R.Wrist.Lat
		X1	Y1	Z1	X2	Y2	Z2	X3	Y3	Z3	X4	Y4	Z4	X5	Y5	Z5	X6	Y6	Z6	X7	Y7	Z7	X8	Y8	Z8	X9	Y9	Z9	X10	Y10	Z10	X11	Y11	Z11	X12	Y12	Z12	X13	Y13	Z13	X14	Y14	Z14	X15	Y15	Z15	X16	Y16	Z16	X17	Y17	Z17	X18	Y18	Z18	X19	Y19	Z19	X20	Y20	Z20	X21	Y21	Z21	X22	Y22	Z22	X23	Y23	Z23	X24	Y24	Z24

408	1.628	1.6111339	0.1274517	-0.1100094	0.88928896	0.035094682	-0.0044542889	1.487909	0.1052182	-0.14309295	0.77254337	0.098151228	0.029044493	1.4773372	0.11775917	-0.060397518	0.79645182	0.11730836	-0.056997254	1.4319602	0.043764784	-0.10527543	0.71238365	0.10085443	-0.028262381	1.3819242	0.4593854	-0.14359584	0.99124717	0.42437867	0.071384646	1.3431035	0.44115593	-0.024599352	0.96989361	0.43223555	-0.058366576	1.1838617	0.79560593	-0.19924255	1.0812733	0.77331899	0.13542449	1.238079	0.84138313	-0.13814894	1.1943451	0.82930719	0.10760346	1.0308858	0.90552773	-0.045161278	1.1357042	1.3175254	-0.21587402	1.1466757	1.3090825	0.14460392	1.058898	1.345693	-0.033655686	1.0049115	1.0417828	-0.26360095	1.2316586	0.99633224	0.23130049	1.0249892	0.81612421	-0.35115942	1.4288987	1.0860453	0.096726163
409	1.632	1.6169695	0.12602707	-0.11002429	0.88952805	0.035136172	-0.0043544012	1.4936189	0.1033734	-0.1420746	0.7741395	0.099978218	0.029608801	1.4834621	0.11607268	-0.059305411	0.79826046	0.11895376	-0.056408598	1.4380149	0.041882298	-0.10374337	0.71405175	0.10380406	-0.027631595	1.3869886	0.45750674	-0.14316652	0.99688707	0.42372615	0.071551353	1.3481188	0.43953852	-0.023923428	0.97598149	0.43146095	-0.058251794	1.1911101	0.79443442	-0.19936288	1.0870335	0.77237436	0.13521544	1.2452441	0.84052697	-0.1382567	1.201033	0.82827532	0.10744581	1.037805	0.90439238	-0.045558718	1.1421621	1.3165179	-0.21645293	1.1527155	1.3081494	0.14403196	1.0650875	1.3446084	-0.034372961	1.0105058	1.0412348	-0.26380243	1.2373983	0.9952786	0.2305884	1.0296006	0.81563058	-0.35177163	1.4348192	1.0843078	0.095906133
410	1.636	1.6222586	0.12415779	-0.11009297	0.8897889	0.03516775	-0.0042367828	1.4987816	0.10128986	-0.14103855	0.77581261	0.10186024	0.030171526	1.4890338	0.11420404	-0.058204706	0.80020977	0.12065435	-0.055787021	1.4434195	0.039863222	-0.10210486	0.71587603	0.10686749	-0.026999314	1.392018	0.45566468	-0.14278401	1.0026586	0.42304611	0.071749577	1.3532574	0.43823966	-0.023320096	0.98223075	0.43062522	-0.058077712	1.1984157	0.79332067	-0.19949412	1.0932528	0.77141841	0.13495095	1.2524366	0.83966971	-0.13833882	1.2077744	0.82725559	0.10729987	1.0454494	0.90314442	-0.044478637	1.148667	1.3155203	-0.21705131	1.1587781	1.3072349	0.14344344	1.0713291	1.3435325	-0.035093717	1.0162105	1.0406697	-0.26402551	1.2430288	0.99418117	0.2298988	1.0343975	0.815109	-0.35235928	1.4407242	1.0824281	0.095143497
411	1.64	1.6270169	0.12182035	-0.11015608	0.89008415	0.035178401	-0.0040989838	1.5034258	0.098942819	-0.1400001	0.77754971	0.10378707	0.030716483	1.4940633	0.11215514	-0.057098934	0.8023144	0.12240308	-0.055131737	1.4482022	0.037682458	-0.10039904	0.71786955	0.11005035	-0.026359252	1.3970129	0.45383229	-0.14246523	1.0085435	0.42233726	0.071986517	1.3585332	0.43721329	-0.022819278	0.98864332	0.42972184	-0.057845242	1.2057766	0.79226982	-0.19963612	1.099826	0.77047167	0.13464277	1.2596603	0.8388115	-0.13839741	1.2145632	0.8262442	0.10717333	1.0532663	0.90192493	-0.04326464	1.1552217	1.3145338	-0.21766853	1.1648687	1.3063378	0.14284087	1.0776036	1.3424568	-0.035821672	1.0220249	1.0400879	-0.26427182	1.24856	0.99305061	0.22924044	1.0393847	0.81456174	-0.35291557	1.4466102	1.0804119	0.094441011
412	1.644	1.6312724	0.1189941	-0.11015193	0.89041693	0.035162164	-0.0039460872	1.5075761	0.0963163	-0.13898247	0.77937052	0.10576517	0.031253464	1.4985606	0.10992154	-0.055999662	0.80458081	0.1242027	-0.054443612	1.4523742	0.035320817	-0.098668082	0.72003922	0.11336089	-0.025708981	1.401977	0.45199849	-0.14222165	1.0145408	0.42160421	0.07227994	1.3639462	0.4363907	-0.022443413	0.99522845	0.42875078	-0.057557212	1.2131891	0.79128277	-0.19978491	1.1065516	0.76954888	0.13432235	1.2669176	0.83795469	-0.13845022	1.2214031	0.82524358	0.10706501	1.0607041	0.90086783	-0.042954391	1.1618241	1.3135625	-0.21830248	1.1709943	1.3054521	0.14222696	1.0839034	1.3413774	-0.036571788	1.0279523	1.0394866	-0.2645398	1.2540045	0.99189491	0.22861125	1.0445585	0.8139857	-0.35343533	1.4524721	1.0782657	0.093801733
413	1.648	1.6350325	0.11572378	-0.11004398	0.89078368	0.035125458	-0.0037841551	1.5112332	0.093425717	-0.13799145	0.78133169	0.10782427	0.0318242	1.5025345	0.10748832	-0.054923641	0.80701425	0.12606061	-0.053724377	1.4559103	0.032802416	-0.096962135	0.72239041	0.11680372	-0.025055114	1.4069227	0.45016805	-0.14205846	1.0206857	0.42084976	0.072647965	1.3694774	0.43569762	-0.022200071	1.0019928	0.42771609	-0.057212424	1.2206494	0.79036078	-0.19993803	1.1133181	0.76865451	0.1340059	1.2742018	0.83709974	-0.13852531	1.2282995	0.82426011	0.10696524	1.0676569	0.89997907	-0.043669331	1.1684722	1.312612	-0.21895071	1.1771604	1.3045746	0.14160159	1.0902323	1.3402928	-0.037355582	1.0340013	1.0388653	-0.2648284	1.2593616	0.99072037	0.22800317	1.0499128	0.81337638	-0.35392303	1.45831	1.0759897	0.09322627
414	1.652	1.6382687	0.11212336	-0.10981858	0.89118268	0.035085032	-0.0036075666	1.5143686	0.090317038	-0.13700904	0.78348536	0.10999679	0.032461395	1.5059793	0.10483122	-0.053884806	0.80963063	0.1279793	-0.052976429	1.4587277	0.030240875	-0.095370413	0.72494025	0.12037364	-0.024408387	1.4118748	0.44835357	-0.14197324	1.027047	0.42006325	0.073091401	1.3751074	0.43506781	-0.022081573	1.0089371	0.4266197	-0.056808433	1.2281555	0.78950434	-0.20009767	1.1200917	0.76778789	0.13369746	1.2815036	0.83623915	-0.13864113	1.2352513	0.82329672	0.10686629	1.0744305	0.89915396	-0.044792334	1.1751643	1.3116837	-0.21961548	1.1833687	1.3037047	0.14095982	1.0965966	1.3392052	-0.038169318	1.0401745	1.0382263	-0.2651437	1.2646261	0.98953618	0.22741178	1.0554456	0.81273302	-0.35438814	1.4641282	1.0735795	0.092713001
415	1.656	1.6409726	0.10824986	-0.10945235	0.89162138	0.035057074	-0.003393687	1.516964	0.087041688	-0.13603114	0.78584144	0.11229389	0.033151207	1.5088792	0.10192527	-0.052885816	0.81246025	0.12995154	-0.052204092	1.4607172	0.02785127	-0.094033689	0.72772376	0.12405684	-0.023776876	1.4168562	0.44656484	-0.14195337	1.0337219	0.41921761	0.073595626	1.3808345	0.43444594	-0.022061949	1.0160616	0.42545968	-0.056344993	1.2357054	0.78870465	-0.20026644	1.1268666	0.76694488	0.13339564	1.2888324	0.83535369	-0.13878751	1.2422521	0.82235419	0.10676649	1.0813531	0.89829361	-0.045711237	1.1818962	1.3107745	-0.22030109	1.1896138	1.3028417	0.1402968	1.1030017	1.3381191	-0.039001014	1.0464659	1.0375711	-0.26549303	1.2697963	0.98835088	0.22683987	1.0611607	0.81205727	-0.35483538	1.4699279	1.0710383	0.092261759
